<svg fill="none" height="56" id="icon6" viewbox="0 0 54 54" width="56" xmlns="http://www.w3.org/2000/svg">
<defs>
<radialgradient cx="0" cy="0" fx="0" fy="0" gradienttransform="matrix(-17.6 -22.9 21 -16.1 36.6 48.7)" gradientunits="userSpaceOnUse" id="Gradient-2_c_1_r5" r="1">
<stop offset="0" stop-color="#1c2130"></stop>
<stop offset="1" stop-color="#1c2130" stop-opacity="0"></stop>
</radialgradient>
<radialgradient cx="0" cy="0" fx="0" fy="0" gradienttransform="matrix(18.6 -22.1 20.3 17 24.3 38.3)" gradientunits="userSpaceOnUse" id="Gradient-3_c_1_r5" r="1">
<stop offset="0" stop-color="#1c2130"></stop>
<stop offset="1" stop-color="#1c2130" stop-opacity="0"></stop>
</radialgradient>
<lineargradient gradientunits="userSpaceOnUse" id="Gradient-0_c_1_r5" x1="52" x2="-2.3" y1="52" y2="1">
<stop offset="0" stop-color="#d8fffc" stop-opacity="0.63"></stop>
<stop offset="0.2" stop-color="#a0fff7" stop-opacity="0"></stop>
<stop offset="0.5" stop-color="#8dfff6" stop-opacity="0.56"></stop>
<stop offset="0.7" stop-color="#9af8f0"></stop>
<stop offset="1" stop-color="#fff" stop-opacity="0"></stop>
<stop offset="1" stop-color="#bafff9" stop-opacity="0"></stop>
</lineargradient>
<lineargradient gradientunits="userSpaceOnUse" id="Gradient-1_c_1_r5" x1="24" x2="24" y1="0" y2="48">
<stop offset="0" stop-color="#37b0ce"></stop>
<stop offset="1" stop-color="#01586b"></stop>
</lineargradient>
<clippath id="ClipPath-1_c_1_r">
<rect fill="#fff" height="56" rx="8" width="56"></rect>
</clippath>
</defs>
<style>
                        @keyframes a0_t_c_1_r {
                            0% {
                                transform: translate(28px, 28px) scale(0, 0) translate(-28px, -28px);
                                animation-timing-function: cubic-bezier(0, 0, .6, 1)
                            }

                            to {
                                transform: translate(28px, 28px) scale(1, 1) translate(-28px, -28px)
                            }
                        }

                        @keyframes a1_o_c_1_r {
                            0% {
                                opacity: .6
                            }

                            to {
                                opacity: 0
                            }
                        }
                    </style>
<g clip-path="url(#ClipPath-1_c_1_r)" style="animation: 0.25s linear both a0_t_c_1_r;" transform="matrix(0 0 0 0 28 28)">
<rect fill="#151c2e" height="56" opacity="0.7" rx="8" width="56"></rect>
<path clip-rule="evenodd" d="M31.3 73.8c.2-5.9 4.5-10.1 7.6-15.1 3.3-5.2 4.6-13.1 10.6-14.1s9.3 6.8 14.6 9.9c5.8 3.5 14.8 2.7 17.5 8.9 2.9 6.6 0 14.8-4.6 20.3-4.3 5.1-11.7 4.7-18.1 6.4-7.1 2-14.6 8-21 4.3-6.5-3.8-6.8-13.1-6.6-20.6ZM23.8 44.2c3.6 3.3 7.2 8 6.2 12.8-.9 4.8-7 5.7-10.6 9-3.8 3.5-5.4 11.3-10.6 10.7-5.3-.6-4.5-9-8.1-13-3.7-4.1-11.5-4.6-12.4-10.1-1-5.7 3.4-11.5 8.4-14.4 4.5-2.6 9.9.2 15 1.1 4.3.8 8.8.9 12.1 3.9ZM51.3-5.2c3.6 3.4 7.2 8 6.3 12.9-1 4.7-7.1 5.7-10.6 8.9-3.9 3.6-5.5 11.4-10.7 10.7-5.3-.6-4.5-9-8-12.9-3.7-4.2-11.6-4.6-12.5-10.1-1-5.7 3.4-11.6 8.4-14.4 4.6-2.6 9.9.1 15 1.1 4.3.8 8.8.9 12.1 3.8Z" fill="#1c2130" fill-rule="evenodd" opacity="0.2"></path>
<rect fill="url(#Gradient-0_c_1_r5)" height="52" opacity="0.6" rx="6" transform="translate(2 2)" width="52"></rect>
<rect fill="url(#Gradient-1_c_1_r5)" height="48" rx="4" transform="translate(4 4)" width="48">
</rect>
<path clip-rule="evenodd" d="M23.6 50.4c-3.9-.9-6.1-4.4-9-7.2-3-2.9-8.1-4.8-8-9 .2-4.1 5.9-5.2 8.7-8.3 3.1-3.5 3.8-9.5 8.3-10.5 4.8-1 9.9 2 12.9 5.9 2.8 3.6 1.6 8.4 1.8 12.9.4 5.1 3.4 10.9 0 14.6-3.5 3.8-9.7 2.8-14.7 1.6Z" fill="url(#Gradient-2_c_1_r5)" fill-rule="evenodd" opacity="0.1"></path>
<path clip-rule="evenodd" d="M19.9 26c.1-4 3-6.9 5.1-10.3 2.1-3.6 3-9 7.1-9.7 4.1-.8 6.3 4.6 10 6.6 4 2.3 10.1 1.7 12 5.9 2 4.5.1 10.1-3 13.9-2.9 3.5-7.9 3.3-12.3 4.5-4.8 1.4-9.9 5.6-14.3 3.1-4.4-2.6-4.7-8.9-4.6-14Z" fill="url(#Gradient-3_c_1_r5)" fill-rule="evenodd" opacity="0.1"></path>
<rect fill="#151c2e" height="56" opacity="0.6" rx="8" style="animation: 0.25s linear both a1_o_c_1_r;" width="56"></rect>
</g>
</svg>