<!-- icon666.com - MILLIONS vector ICONS FREE --><svg id="Capa_1" enable-background="new 0 0 448 448" viewBox="0 0 448 448" xmlns="http://www.w3.org/2000/svg"><g><g id="menu_1_"><path d="m432 224c0 114.875-93.125 208-208 208s-208-93.125-208-208 93.125-208 208-208 208 93.125 208 208z" fill="#cdeef6"></path><path d="m224 0c-123.712 0-224 100.288-224 224s100.288 224 224 224 224-100.288 224-224c-.138-123.654-100.346-223.862-224-224zm0 416c-106.039 0-192-85.961-192-192s85.961-192 192-192 192 85.961 192 192c-.121 105.989-86.011 191.879-192 192zm-32-304h-64c-8.837 0-16 7.163-16 16v64c0 8.837 7.163 16 16 16h64c8.837 0 16-7.163 16-16v-64c0-8.837-7.163-16-16-16zm-16 64h-32v-32h32zm144-64h-64c-8.837 0-16 7.163-16 16v64c0 8.837 7.163 16 16 16h64c8.837 0 16-7.163 16-16v-64c0-8.837-7.163-16-16-16zm-16 64h-32v-32h32zm16 64h-64c-8.837 0-16 7.163-16 16v64c0 8.837 7.163 16 16 16h64c8.837 0 16-7.163 16-16v-64c0-8.837-7.163-16-16-16zm-16 64h-32v-32h32zm-112-64h-64c-8.837 0-16 7.163-16 16v64c0 8.837 7.163 16 16 16h64c8.837 0 16-7.163 16-16v-64c0-8.837-7.163-16-16-16zm-16 64h-32v-32h32z" fill="#4f83d1"></path></g></g></svg>